PathFileType	4	(X/Y/Z)	21_coords_data.trc
DataRate	CameraRate	NumFrames	NumMarkers	Units	OrigDataRate	OrigDataStartFrame	OrigNumFrames
30.0	30.0	6	21	m	30.0	43	64
Frame#	Time	THUMB_TIP	THUMB_IP	THUMB_MCP	THUMB_CMC	INDEX_TIP	INDEX_DIP	INDEX_PIP	INDEX_MCP	MIDDLE_TIP	MIDDLE_DIP	MIDDLE_PIP	MIDDLE_MCP	RING_TIP	RING_DIP	RING_PIP	RING_MCP	PINKY_TIP	PINKY_DIP	PINKY_PIP	PINKY_MCP	WRIST
X1	Y1	Z1	X2	Y2	Z2	X3	Y3	Z3	X4	Y4	Z4	X5	Y5	Z5	X6	Y6	Z6	X7	Y7	Z7	X8	Y8	Z8	X9	Y9	Z9	X10	Y10	Z10	X11	Y11	Z11	X12	Y12	Z12	X13	Y13	Z13	X14	Y14	Z14	X15	Y15	Z15	X16	Y16	Z16	X17	Y17	Z17	X18	Y18	Z18	X19	Y19	Z19	X20	Y20	Z20	X21	Y21	Z21
42	1.4	-0.01620919990539551	-0.05555690002441406	0.8681119995117188	-0.02620229911804199	-0.04198839950561523	0.8923410034179687	-0.03859640121459961	-0.030690900802612303	0.9200189819335938	-0.05086759948730469	-0.006180890083312988	0.9445650024414063	-0.003495059967041015	-0.005739749908447266	0.8101129760742187	-0.01719540023803711	-0.007924469947814941	0.83022998046875	-0.03285179901123047	-0.009158860206604004	0.8481929931640625	-0.05582740020751953	-0.009543100357055663	0.8835059814453124	0.003025039911270141	0.025725900650024416	0.81077197265625	-0.014970199584960937	0.02124460029602051	0.8267239990234375	-0.037193199157714844	0.017757699966430663	0.8461580200195312	-0.06109149932861328	0.013589099884033203	0.8845469970703125	0.0009204890131950371	0.04513639831542969	0.8207890014648438	-0.016504199981689453	0.041877998352050784	0.8373060302734375	-0.036676498413085935	0.03812689971923828	0.8564500122070312	-0.058696701049804685	0.0319606990814209	0.8911920166015626	-0.012967100143432617	0.058555599212646484	0.8420819702148438	-0.02411440086364746	0.05632849884033203	0.8598619995117187	-0.035338001251220705	0.05324549865722656	0.8754739990234375	-0.051909000396728515	0.04787820053100586	0.9007039794921875	-0.07927729797363281	0.014269100189208985	0.9686329956054688
43	1.4333333333333333	-0.014046600341796875	-0.05120869827270508	0.8666900024414063	-0.024527299880981446	-0.03877569961547851	0.8910789794921875	-0.03696559906005859	-0.028521400451660156	0.9190689697265625	-0.04976789855957031	-0.004893909931182861	0.9441090087890625	-0.004705959796905517	-0.004506740093231201	0.8092999877929687	-0.018183399200439453	-0.006884059906005859	0.829968017578125	-0.03312540054321289	-0.00861888027191162	0.847843017578125	-0.05611999893188477	-0.009317219734191895	0.8833300170898437	0.001059929966926574	0.026743499755859376	0.8091500244140625	-0.01660849952697754	0.021844699859619142	0.8255549926757813	-0.03818149948120117	0.018037900924682618	0.8459169921875	-0.0618672981262207	0.013640999794006348	0.8843359985351562	-0.00135342001914978	0.04625360107421875	0.8198709716796875	-0.018326900482177735	0.04254830169677734	0.83647802734375	-0.0384208984375	0.03847900009155274	0.8556900024414062	-0.059742500305175784	0.032166400909423826	0.891010009765625	-0.01505370044708252	0.05924789810180664	0.8410469970703125	-0.025995899200439453	0.056865398406982424	0.8589829711914062	-0.036849899291992186	0.05382550048828125	0.8746510009765625	-0.05319160079956055	0.0483760986328125	0.9002470092773438	-0.07877670288085938	0.014669400215148926	0.9687429809570313
44	1.4666666666666666	-0.013848699569702149	-0.04866740036010742	0.865447021484375	-0.024248300552368166	-0.036742900848388674	0.890083984375	-0.036496498107910155	-0.027152900695800782	0.9184920043945313	-0.04916630172729492	-0.0040012202262878415	0.94377099609375	-0.00545035982131958	-0.0032064499855041497	0.8086740112304688	-0.0185762996673584	-0.0056788501739501954	0.8295349731445313	-0.03354140090942383	-0.007644259929656982	0.8473980102539063	-0.05623189926147461	-0.00867311954498291	0.8830689697265625	-0.00016967999935150102	0.028041000366210937	0.8085850219726562	-0.017339399337768555	0.02296139907836914	0.82527001953125	-0.03885409927368164	0.01893390083312988	0.845489990234375	-0.062155300140380856	0.014303799629211425	0.8841640014648438	-0.0026442499160766603	0.047425399780273436	0.8191749877929687	-0.01956279945373535	0.04359090042114258	0.8359910278320313	-0.03929840087890625	0.039381698608398436	0.85539599609375	-0.060249099731445314	0.03276229858398438	0.8907769775390625	-0.016299100875854493	0.0603385009765625	0.8404929809570313	-0.0269148006439209	0.05788669967651367	0.8587410278320312	-0.03769049835205078	0.0546968994140625	0.8743209838867188	-0.05371080017089844	0.04887110137939453	0.8999390258789063	-0.07843589782714844	0.0150447998046875	0.9686799926757812
45	1.5	-0.013064599990844727	-0.04638619995117187	0.8646270141601563	-0.023676200866699217	-0.034910999298095706	0.8894210205078125	-0.03608089828491211	-0.02569129943847656	0.9178380126953125	-0.04882550048828125	-0.0029607698917388913	0.9434219970703125	-0.005051070213317871	-0.001197849988937378	0.8083489990234375	-0.01824209976196289	-0.003935620069503785	0.829406982421875	-0.033128101348876955	-0.006111849784851074	0.8469580078125	-0.056091598510742184	-0.007473199844360352	0.88281298828125	-0.000348565995693206	0.030107500076293946	0.8081380004882812	-0.017467599868774414	0.02483300018310547	0.8249719848632813	-0.03863940048217773	0.020444400787353517	0.8452949829101563	-0.062260398864746096	0.015568300247192383	0.884010986328125	-0.003217659950256347	0.04941630172729492	0.818958984375	-0.01989349937438965	0.045268299102783204	0.8358350219726562	-0.039452598571777346	0.04081679916381836	0.8553930053710938	-0.06026729965209961	0.033835399627685545	0.8905910034179687	-0.016671300888061524	0.061992599487304685	0.8407999877929687	-0.027150999069213866	0.05934550094604492	0.8588070068359375	-0.037901500701904296	0.056003299713134766	0.8742839965820313	-0.05389730072021484	0.05002690124511719	0.8999749755859375	-0.07824340057373047	0.015593799591064453	0.9683070068359375
46	1.5333333333333334	-0.011430700302124024	-0.043668899536132816	0.8644099731445313	-0.022562299728393555	-0.03261249923706055	0.8890789794921875	-0.035282299041748046	-0.023864599227905275	0.9179530029296875	-0.048444900512695316	-0.0015860600471496581	0.9434199829101563	-0.004136330127716065	0.0014443199634552	0.8083060302734375	-0.017298999786376952	-0.001466599941253662	0.8293170166015625	-0.03218339920043945	-0.003901560068130493	0.8471409912109376	-0.05513970184326172	-0.005912479877471924	0.8823889770507812	-0.00037012699246406506	0.03289640045166015	0.8077999877929688	-0.017339599609375	0.02731369972229004	0.8247739868164062	-0.0383474006652832	0.022508199691772462	0.845072998046875	-0.061614200592041014	0.017037200927734374	0.8836680297851562	-0.003853869915008545	0.05214459991455078	0.8185980224609375	-0.02033919906616211	0.04768349838256836	0.8354730224609375	-0.03960359954833984	0.042816600799560546	0.8552219848632813	-0.0599359016418457	0.03536309814453125	0.8903759765625	-0.01698710060119629	0.06471869659423828	0.8410759887695313	-0.027468000411987305	0.06165439987182617	0.8589970092773438	-0.03822570037841797	0.05797589874267578	0.8745819702148437	-0.05391759872436523	0.05150220108032227	0.9000989990234375	-0.07823419952392578	0.01630030059814453	0.967635986328125
47	1.5666666666666667	-0.00869048023223877	-0.04007870101928711	0.8644359741210937	-0.020556900024414064	-0.02954490089416504	0.8888829956054688	-0.03389479827880859	-0.02143040084838867	0.9173699951171875	-0.04786809921264648	0.00043322798609733503	0.9432349853515625	-0.002998120069503784	0.005190780162811279	0.8082999877929687	-0.01618320083618164	0.001773190021514892	0.8285850219726563	-0.031174699783325197	-0.001165339946746826	0.8468040161132813	-0.05425149917602539	-0.0038726398944854733	0.8821119995117187	-0.0005138869881629941	0.03659410095214844	0.8074739990234375	-0.01706089973449707	0.030599500656127928	0.8246329956054688	-0.03806620025634765	0.025210699081420897	0.8447869873046875	-0.06106760025024414	0.018962699890136717	0.883416015625	-0.004138599872589111	0.05578789901733398	0.8187169799804688	-0.02043829917907715	0.05081430053710938	0.8355369873046875	-0.03951409912109375	0.04556840133666992	0.855416015625	-0.05986589813232422	0.03738470077514648	0.890551025390625	-0.017156299591064454	0.06758380126953124	0.8412540283203125	-0.027778799057006837	0.06425810241699219	0.8590700073242188	-0.038413501739501955	0.06027909851074219	0.8745830078125	-0.054352901458740235	0.05350970077514648	0.9002119750976563	-0.07810710144042969	0.0176289005279541	0.9675700073242187
